<svg width="250" height="250" viewBox="0 0 250 250" fill="none" xmlns="http://www.w3.org/2000/svg">
<g clip-path="url(#clip0_133_3126)">
<path d="M49.542 109.798H41.2831V146.468C35.9458 149.192 30.8322 149.279 25.9313 146.468V109.798H20.3652V97.0885H25.9313V95.6557C25.9313 89.5108 27.697 84.8411 31.228 81.6496C34.759 78.4567 39.9365 76.8613 46.7591 76.8613C47.8962 76.8613 48.7341 76.8904 49.2727 76.9508V89.9284C46.3402 89.7494 44.2755 90.1664 43.0785 91.1807C41.8816 92.1958 41.2831 94.0149 41.2831 96.641V97.0885H49.542V109.798Z" fill="#188427"/>
<path d="M75.7563 97.8809C79.288 97.8809 82.3851 98.5969 85.0483 100.028C87.7115 101.461 89.7613 103.34 91.1983 105.667V98.5969H106.55V148.449C106.55 153.043 105.637 157.204 103.811 160.933C101.986 164.663 99.2029 167.632 95.4624 169.839C91.7213 172.046 87.0681 173.151 81.5023 173.151C74.0805 173.151 68.0659 171.405 63.4569 167.915C58.8487 164.425 56.2154 159.695 55.5571 153.729H70.7291C71.2079 155.638 72.345 157.145 74.1404 158.248C75.9358 159.353 78.1508 159.905 80.7841 159.905C83.9561 159.905 86.4846 158.994 88.3698 157.175C90.255 155.355 91.1983 152.447 91.1983 148.449V141.378C89.7014 143.705 87.6367 145.599 85.0034 147.061C82.3701 148.523 79.288 149.254 75.7563 149.254C71.6268 149.254 67.8863 148.195 64.5342 146.077C61.1827 143.958 58.5345 140.945 56.5894 137.037C54.6444 133.129 53.6719 128.609 53.6719 123.478C53.6719 118.346 54.6444 113.842 56.5894 109.963C58.5345 106.085 61.1827 103.102 64.5342 101.013C67.8863 98.925 71.6268 97.8809 75.7563 97.8809ZM91.1983 123.567C91.1983 119.749 90.1353 116.735 88.0107 114.528C85.8861 112.32 83.2977 111.216 80.2455 111.216C77.1926 111.216 74.6042 112.305 72.4796 114.483C70.355 116.66 69.2927 119.659 69.2927 123.478C69.2927 127.296 70.355 130.325 72.4796 132.562C74.6042 134.8 77.1926 135.919 80.2455 135.919C83.2977 135.919 85.8861 134.815 88.0107 132.607C90.1353 130.399 91.1983 127.386 91.1983 123.567Z" fill="#188427"/>
<path d="M125.403 93.406C122.71 93.406 120.511 92.6147 118.805 91.0343C117.099 89.4531 116.246 87.4982 116.246 85.172C116.246 82.7853 117.099 80.8006 118.805 79.2194C120.511 77.639 122.71 76.8477 125.403 76.8477C128.037 76.8477 130.206 77.639 131.912 79.2194C133.618 80.8006 134.471 82.7853 134.471 85.172C134.471 87.4982 133.618 89.4531 131.912 91.0343C130.206 92.6147 128.037 93.406 125.403 93.406Z" fill="#188427"/>
<path d="M133.034 98.5977V148.539H117.682V98.5977C123.105 101.32 128.209 101.203 133.034 98.5977Z" fill="#188427"/>
<path d="M172.085 135.561V148.538H164.275C158.709 148.538 154.37 147.181 151.258 144.466C148.146 141.751 146.589 137.32 146.589 131.174V111.306H140.484V98.5967H146.589V86.4238H161.941V98.5967H171.995V111.306H161.941V131.353C161.941 132.845 162.3 133.92 163.018 134.576C163.736 135.232 164.933 135.561 166.609 135.561H172.085Z" fill="#188427"/>
<path d="M203.418 149.254C198.51 149.254 194.096 148.209 190.176 146.121C186.255 144.033 183.173 141.049 180.929 137.171C178.685 133.293 177.562 128.759 177.562 123.567C177.562 118.436 178.7 113.916 180.974 110.008C183.248 106.1 186.36 103.102 190.311 101.013C194.261 98.925 198.689 97.8809 203.597 97.8809C208.505 97.8809 212.934 98.925 216.884 101.013C220.834 103.102 223.946 106.1 226.221 110.008C228.495 113.916 229.633 118.436 229.633 123.567C229.633 128.699 228.48 133.218 226.176 137.127C223.872 141.035 220.73 144.033 216.75 146.121C212.769 148.209 208.325 149.254 203.418 149.254ZM203.418 136.008C206.35 136.008 208.849 134.933 210.914 132.786C212.979 130.638 214.011 127.565 214.011 123.567C214.011 119.569 213.009 116.497 211.004 114.348C208.999 112.201 206.53 111.127 203.597 111.127C200.604 111.127 198.121 112.185 196.146 114.304C194.171 116.422 193.183 119.51 193.183 123.567C193.183 127.565 194.156 130.638 196.101 132.786C198.046 134.933 200.485 136.008 203.418 136.008Z" fill="#188427"/>
</g>
<defs>
<clipPath id="clip0_133_3126">
<rect width="250" height="250" fill="white"/>
</clipPath>
</defs>
</svg>
